<?xml version="1.0" standalone="no"?><!DOCTYPE svg PUBLIC "-//W3C//DTD SVG 1.1//EN" "http://www.w3.org/Graphics/SVG/1.1/DTD/svg11.dtd"><svg t="1614513615388" class="icon" viewBox="0 0 1024 1024" version="1.1" xmlns="http://www.w3.org/2000/svg" p-id="11480" width="256" height="256" xmlns:xlink="http://www.w3.org/1999/xlink"><defs><style type="text/css">@font-face { font-family: element-icons; src: url("chrome-extension://moombeodfomdpjnpocobemoiaemednkg/fonts/element-icons.woff") format("woff"), url("chrome-extension://moombeodfomdpjnpocobemoiaemednkg/fonts/element-icons.ttf ") format("truetype"); }
</style></defs><path d="M512.990329 829.046698c-14.147555 0-28.295109 0-42.442664-1.839182L404.903012 820.558165c-51.355623-4.668693-89.978447-50.931196-89.978447-107.521415V404.054159c0-154.632771 61.824813-297.947499 169.770655-393.160542a42.442664 42.442664 0 0 1 56.590218 0c107.804366 95.213042 169.770655 238.52777 169.770655 393.160542v309.548494c0 56.590218-38.622824 102.852722-89.978447 107.521414l-65.361702 6.083449c-14.28903 1.27328-28.57806 1.839182-42.725615 1.839182z m0-767.504836a466.869301 466.869301 0 0 0-141.475546 342.512297v309.548494c0 26.738878 16.977065 49.23349 38.481349 51.214147l65.503177 5.941973a413.250069 413.250069 0 0 0 74.840564 0l65.503178-5.941973c21.504283-1.980658 38.481348-24.475269 38.481348-51.214147V404.054159a466.869301 466.869301 0 0 0-141.475546-342.512297z" p-id="11481" fill="#1674D1"></path><path d="M179.532468 786.179608l26.172975-224.804643A151.520309 151.520309 0 0 1 278.56535 449.043382l32.822326-18.957723a28.295109 28.295109 0 1 1 28.295109 48.809063l-31.973473 18.957723a93.798287 93.798287 0 0 0-45.696601 70.737773l-14.147555 120.39569 65.078751-32.822327a28.295109 28.295109 0 1 1 25.465598 50.50677zM844.467532 786.179608L685.166068 705.962973a28.295109 28.295109 0 1 1 25.465598-50.50677l65.078751 32.822327-14.147554-120.395689a94.364189 94.364189 0 0 0-45.838077-70.737773l-32.3979-18.957723a28.295109 28.295109 0 0 1 28.295109-48.809064l32.3979 18.957723a151.520309 151.520309 0 0 1 73.284333 112.331584zM483.563415 848.99475h56.590219v174.863774h-56.590219zM570.570876 848.99475h56.590218v116.57585h-56.590218zM395.848577 848.99475h56.590218v116.57585h-56.590218zM563.072672 389.199226l-50.648245-79.509256-50.223819 78.801879-47.677259-30.417243 97.901078-153.783918 98.466979 154.491296-47.818734 30.417242z" p-id="11482" fill="#1674D1"></path></svg>